# WaveFront *.obj file (generated by Autodesk ATF)

mtllib 26761b1d-ead5-4d8b-90f0-3688486eb310.mtl

g Body1

v -10.000000 -10.000000 5.000000
v -9.711620 -9.891668 5.000000
v -9.425957 -9.786477 5.000000
v -9.710948 -9.891479 5.000000
v -8.861777 -9.585332 5.000000
v 0.000000 17.000000 5.000000
v 0.000000 17.000000 6.000000
v -8.861777 -9.585332 6.000000
v -9.141766 -9.684084 5.000000
v -9.083959 -9.663532 6.000000
v -9.308694 -9.743945 6.000000
v -9.536345 -9.826884 6.000000
v -9.766903 -9.912342 6.000000
v -10.000000 -10.000000 6.000000
v 9.455072 -9.806199 5.000000
v 9.737066 -9.905504 5.000000
v 10.000000 -10.000000 5.000000
v 10.000000 -10.000000 6.000000
v 9.737066 -9.905504 6.000000
v 9.455072 -9.806199 6.000000
v 8.809659 -9.585332 5.000000
v 8.809659 -9.585332 6.000000
v 0.000000 20.000000 6.000000
v -9.142443 -9.684259 5.000000
v 9.726360 -9.901885 5.000000
v -7.709739 -9.206588 5.000000
v -6.619589 -8.899370 5.000000
v -5.593610 -8.666315 5.000000
v -4.624846 -8.499383 5.000000
v 0.000000 10.000000 5.000000
v 4.624846 -8.499383 5.000000
v 5.587455 -8.684527 5.000000
v 6.602801 -8.924142 5.000000
v 7.677413 -9.224972 5.000000
v -10.000000 -10.000000 0.000000
v -7.097632 -9.027008 0.000000
v -5.763778 -8.700388 0.000000
v -4.624846 -8.499383 0.000000
v 4.624846 -8.499383 0.000000
v 5.951173 -8.764955 0.000000
v 7.292336 -9.111986 0.000000
v 10.000000 -10.000000 0.000000
v 0.000000 10.000000 0.000000
v 0.000000 20.000000 0.000000
vt -1.000000 1.500000 0.000000
vt -0.971162 1.489167 0.000000
vt -0.971095 1.489148 0.000000
vt -0.942596 1.478648 0.000000
vt 0.000000 0.000000 0.000000
vt 2.802340 0.000000 0.000000
vt 0.000000 0.100000 0.000000
vt 2.802340 0.100000 0.000000
vt 0.000000 0.100000 0.000000
vt 0.000000 0.000000 0.000000
vt 0.024229 0.100000 0.000000
vt 0.030083 0.000000 0.000000
vt 0.048457 0.100000 0.000000
vt 0.060166 0.000000 0.000000
vt 0.072686 0.100000 0.000000
vt 0.090655 0.000000 0.000000
vt 0.096915 0.100000 0.000000
vt 0.121144 0.000000 0.000000
vt 0.121144 0.100000 0.000000
vt 0.059478 0.000000 0.000000
vt 0.088338 0.000000 0.000000
vt 0.059478 0.100000 0.000000
vt 0.088338 0.100000 0.000000
vt 0.117198 0.000000 0.000000
vt 0.117198 0.100000 0.000000
vt 0.563543 0.000000 0.000000
vt 0.563543 0.100000 0.000000
vt 0.495321 0.000000 0.000000
vt 0.495321 0.100000 0.000000
vt 0.000000 0.000000 0.000000
vt 2.800696 0.000000 0.000000
vt 0.000000 0.100000 0.000000
vt 2.800696 0.100000 0.000000
vt -0.880966 1.458533 0.000000
vt -0.945507 1.480620 0.000000
vt -0.000000 -1.200000 0.000000
vt -0.973707 1.490550 0.000000
vt -1.000000 1.500000 0.000000
vt -0.000000 -1.500000 0.000000
vt 1.000000 1.500000 0.000000
vt 0.976690 1.491234 0.000000
vt 0.953634 1.482688 0.000000
vt 0.930869 1.474395 0.000000
vt 0.908396 1.466353 0.000000
vt 0.886178 1.458533 0.000000
vt -0.942596 1.478648 0.000000
vt -0.914244 1.468426 0.000000
vt -0.914177 1.468408 0.000000
vt -0.886178 1.458533 0.000000
vt 1.000000 -1.500000 0.000000
vt 0.973707 -1.490550 0.000000
vt 0.972636 -1.490189 0.000000
vt 0.945507 -1.480620 0.000000
vt 0.767741 -1.422497 0.000000
vt 0.880966 -1.458533 0.000000
vt 0.000000 0.500000 0.000000
vt 0.000000 1.200000 0.000000
vt -0.886178 -1.458533 0.000000
vt -0.770974 -1.420659 0.000000
vt -0.661959 -1.389937 0.000000
vt -0.559361 -1.366631 0.000000
vt -0.462485 -1.349938 0.000000
vt 0.462485 -1.349938 0.000000
vt 0.558745 -1.368453 0.000000
vt 0.660280 -1.392414 0.000000
vt -0.282569 0.500000 0.000000
vt -0.106889 0.000000 0.000000
vt -0.000000 0.500000 0.000000
vt -0.080137 0.000000 0.000000
vt -0.053386 0.000000 0.000000
vt -0.426823 0.500000 0.000000
vt -0.332981 0.000000 0.000000
vt -0.219935 0.000000 0.000000
vt -0.446027 0.000000 0.000000
vt -0.559073 0.500000 0.000000
vt -0.559073 0.000000 0.000000
vt -0.026693 0.000000 0.000000
vt -0.000000 0.000000 0.000000
vt -0.000000 0.000000 0.000000
vt -0.000000 0.500000 0.000000
vt -0.111632 0.000000 0.000000
vt -0.152330 0.500000 0.000000
vt -0.223264 0.000000 0.000000
vt -0.295612 0.500000 0.000000
vt -0.334896 0.000000 0.000000
vt -0.446528 0.000000 0.000000
vt -0.558946 0.500000 0.000000
vt -0.508030 0.000000 0.000000
vt -0.533488 0.000000 0.000000
vt -0.558946 0.000000 0.000000
vt -0.154680 0.500000 0.000000
vt -2.061553 0.500000 0.000000
vt -0.154680 0.000000 0.000000
vt -2.061553 0.000000 0.000000
vt 0.462485 -1.349938 0.000000
vt 0.576378 -1.370039 0.000000
vt -0.000000 0.500000 0.000000
vt 0.709763 -1.402701 0.000000
vt 1.000000 -1.500000 0.000000
vt -0.000000 1.500000 0.000000
vt -1.000000 -1.500000 0.000000
vt -0.729234 -1.411199 0.000000
vt -0.595117 -1.376496 0.000000
vt -0.462485 -1.349938 0.000000
vt -1.906873 0.000000 0.000000
vt -0.000000 0.000000 0.000000
vt -1.906873 0.500000 0.000000
vt -0.000000 0.500000 0.000000
vt 0.000000 0.000000 0.000000
vt 3.162278 0.000000 0.000000
vt 0.000000 0.500000 0.000000
vt 3.162278 0.600000 0.000000
vt 0.000000 0.600000 0.000000
vt 3.162278 0.000000 0.000000
vt 3.162278 0.500000 0.000000
vt 0.000000 0.000000 0.000000
vt 0.000000 0.600000 0.000000
vt 3.162278 0.600000 0.000000
vn 0.000000 0.000000 -0.100000
vn 0.000000 0.000000 -0.100000
vn 0.000000 0.000000 -0.100000
vn 0.000000 0.000000 -0.100000
vn 0.094868 -0.031623 0.000000
vn 0.094868 -0.031623 0.000000
vn 0.094868 -0.031623 0.000000
vn 0.094868 -0.031623 0.000000
vn 0.035400 -0.093524 0.000000
vn 0.035400 -0.093524 0.000000
vn 0.034989 -0.093679 0.000000
vn 0.034881 -0.093720 0.000000
vn 0.034504 -0.093859 0.000000
vn 0.034241 -0.093955 0.000000
vn 0.033954 -0.094059 0.000000
vn 0.033563 -0.094200 0.000000
vn 0.033435 -0.094245 0.000000
vn 0.032969 -0.094409 0.000000
vn 0.032969 -0.094409 0.000000
vn -0.032912 -0.094429 0.000000
vn -0.033526 -0.094212 0.000000
vn -0.032912 -0.094429 0.000000
vn -0.033526 -0.094212 0.000000
vn -0.034122 -0.093998 0.000000
vn -0.034122 -0.093998 0.000000
vn -0.033012 -0.094394 0.000000
vn -0.033012 -0.094394 0.000000
vn -0.031709 -0.094840 0.000000
vn -0.031709 -0.094840 0.000000
vn -0.094924 -0.031455 0.000000
vn -0.094924 -0.031455 0.000000
vn -0.094924 -0.031455 0.000000
vn -0.094924 -0.031455 0.000000
vn 0.000000 0.000000 0.100000
vn 0.000000 0.000000 0.100000
vn 0.000000 0.000000 0.100000
vn 0.000000 0.000000 0.100000
vn 0.000000 0.000000 0.100000
vn 0.000000 0.000000 0.100000
vn 0.000000 0.000000 0.100000
vn 0.000000 0.000000 0.100000
vn 0.000000 0.000000 0.100000
vn 0.000000 0.000000 0.100000
vn 0.000000 0.000000 0.100000
vn 0.000000 0.000000 0.100000
vn 0.000000 0.000000 -0.100000
vn 0.000000 0.000000 -0.100000
vn 0.000000 0.000000 -0.100000
vn 0.000000 0.000000 0.100000
vn 0.000000 0.000000 0.100000
vn 0.000000 0.000000 0.100000
vn 0.000000 0.000000 0.100000
vn 0.000000 0.000000 0.100000
vn 0.000000 0.000000 0.100000
vn 0.000000 0.000000 0.100000
vn 0.000000 0.000000 0.100000
vn 0.000000 0.000000 0.100000
vn 0.000000 0.000000 0.100000
vn 0.000000 0.000000 0.100000
vn 0.000000 0.000000 0.100000
vn 0.000000 0.000000 0.100000
vn 0.000000 0.000000 0.100000
vn 0.000000 0.000000 0.100000
vn 0.000000 0.000000 0.100000
vn 0.026878 -0.096320 0.000000
vn 0.032891 -0.094436 0.000000
vn 0.035464 -0.093500 0.000000
vn 0.033586 -0.094191 0.000000
vn 0.034241 -0.093955 0.000000
vn 0.020419 -0.097893 0.000000
vn 0.024680 -0.096907 0.000000
vn 0.029348 -0.095597 0.000000
vn 0.019544 -0.098072 0.000000
vn 0.014314 -0.098970 0.000000
vn 0.014314 -0.098970 0.000000
vn 0.034864 -0.093726 0.000000
vn 0.035464 -0.093500 0.000000
vn -0.016799 -0.098579 0.000000
vn -0.016799 -0.098579 0.000000
vn -0.020905 -0.097791 0.000000
vn -0.022390 -0.097461 0.000000
vn -0.024985 -0.096828 0.000000
vn -0.027521 -0.096138 0.000000
vn -0.028772 -0.095772 0.000000
vn -0.031709 -0.094840 0.000000
vn -0.033991 -0.094046 0.000000
vn -0.033509 -0.094219 0.000000
vn -0.033991 -0.094046 0.000000
vn 0.097014 -0.024254 0.000000
vn 0.097014 -0.024254 0.000000
vn 0.097014 -0.024254 0.000000
vn 0.097014 -0.024254 0.000000
vn -0.000000 0.000000 -0.100000
vn -0.000000 0.000000 -0.100000
vn -0.000000 0.000000 -0.100000
vn -0.000000 0.000000 -0.100000
vn -0.000000 0.000000 -0.100000
vn -0.000000 0.000000 -0.100000
vn -0.000000 0.000000 -0.100000
vn -0.000000 0.000000 -0.100000
vn -0.000000 0.000000 -0.100000
vn -0.000000 0.000000 -0.100000
vn -0.097014 -0.024254 0.000000
vn -0.097014 -0.024254 0.000000
vn -0.097014 -0.024254 0.000000
vn -0.097014 -0.024254 0.000000
vn 0.094868 0.031623 0.000000
vn 0.094868 0.031623 0.000000
vn 0.094868 0.031623 0.000000
vn 0.094868 0.031623 0.000000
vn 0.094868 0.031623 0.000000
vn -0.094868 0.031623 0.000000
vn -0.094868 0.031623 0.000000
vn -0.094868 0.031623 0.000000
vn -0.094868 0.031623 0.000000
vn -0.094868 0.031623 0.000000
usemtl Steel_-_Satin
f 1/1/1 2/2/2 4/3/3
f 4/3/3 2/2/2 3/4/4
f 5/5/5 6/6/6 8/7/7
f 8/7/7 6/6/6 7/8/8
f 14/9/9 1/10/10 13/11/11
f 13/11/11 1/10/10 4/12/12
f 13/11/11 4/12/12 12/13/13
f 12/13/13 4/12/12 3/14/14
f 12/13/13 3/14/14 11/15/15
f 11/15/15 3/14/14 9/16/16
f 11/15/15 9/16/16 10/17/17
f 10/17/17 9/16/16 5/18/18
f 10/17/17 5/18/18 8/19/19
f 15/20/20 16/21/21 20/22/22
f 20/22/22 16/21/21 19/23/23
f 19/23/23 16/21/21 17/24/24
f 19/23/23 17/24/24 18/25/25
f 15/26/26 20/27/27 21/28/28
f 21/28/28 20/27/27 22/29/29
f 6/30/30 21/31/31 7/32/32
f 7/32/32 21/31/31 22/33/33
f 22/34/34 20/35/35 7/36/36
f 7/36/36 20/35/35 19/37/37
f 7/36/36 19/37/37 18/38/38
f 18/38/38 23/39/39 7/36/36
f 7/36/36 23/39/39 14/40/40
f 7/36/36 14/40/40 13/41/41
f 13/41/41 12/42/42 7/36/36
f 7/36/36 12/42/42 11/43/43
f 7/36/36 11/43/43 10/44/44
f 10/44/44 8/45/45 7/36/36
f 3/46/4 24/47/46 9/48/47
f 9/48/47 24/47/46 5/49/48
f 17/50/49 16/51/50 25/52/51
f 25/52/51 16/51/50 15/53/52
f 34/54/53 21/55/54 30/56/55
f 30/56/55 21/55/54 6/57/56
f 30/56/55 6/57/56 5/58/57
f 5/58/57 26/59/58 30/56/55
f 30/56/55 26/59/58 27/60/59
f 30/56/55 27/60/59 28/61/60
f 28/61/60 29/62/61 30/56/55
f 31/63/62 32/64/63 30/56/55
f 30/56/55 32/64/63 33/65/64
f 30/56/55 33/65/64 34/54/53
f 36/66/65 5/67/66 35/68/67
f 35/68/67 5/67/66 24/69/68
f 35/68/67 24/69/68 3/70/69
f 37/71/70 27/72/71 36/66/65
f 36/66/65 27/72/71 26/73/72
f 36/66/65 26/73/72 5/67/66
f 27/72/71 37/71/70 28/74/73
f 28/74/73 37/71/70 38/75/74
f 28/74/73 38/75/74 29/76/75
f 3/70/69 2/77/76 35/68/67
f 35/68/67 2/77/76 1/78/77
f 31/79/78 39/80/79 32/81/80
f 32/81/80 39/80/79 40/82/81
f 32/81/80 40/82/81 33/83/82
f 33/83/82 40/82/81 41/84/83
f 33/83/82 41/84/83 34/85/84
f 34/85/84 41/84/83 21/86/85
f 21/86/85 41/84/83 42/87/86
f 21/86/85 42/87/86 15/88/26
f 15/88/26 42/87/86 25/89/87
f 25/89/87 42/87/86 17/90/88
f 38/91/89 43/92/90 29/93/91
f 29/93/91 43/92/90 30/94/92
f 38/95/93 37/96/94 43/97/95
f 43/97/95 37/96/94 36/98/96
f 43/97/95 36/98/96 35/99/97
f 35/99/97 44/100/98 43/97/95
f 43/97/95 44/100/98 42/101/99
f 43/97/95 42/101/99 41/102/100
f 41/102/100 40/103/101 43/97/95
f 43/97/95 40/103/101 39/104/102
f 31/105/103 30/106/104 39/107/105
f 39/107/105 30/106/104 43/108/106
f 42/109/107 44/110/108 17/111/109
f 17/111/109 44/110/108 23/112/110
f 17/111/109 23/112/110 18/113/111
f 35/114/112 1/115/113 44/116/114
f 44/116/114 1/115/113 23/117/115
f 23/117/115 1/115/113 14/118/116

g Body2

v 9.990809 -10.997967 0.000000
v 9.657271 -10.858086 0.000000
v 9.279745 -10.713252 0.000000
v 8.858095 -10.563587 0.000000
v 8.392269 -10.409440 0.000000
v 7.882450 -10.251522 0.000000
v 7.329218 -10.091027 0.000000
v 6.097802 -9.770315 0.000000
v 4.715979 -9.470363 0.000000
v 3.212407 -9.221932 0.000000
v 1.623539 -9.056357 0.000000
v -0.009191 -8.997967 0.000000
v -1.641921 -9.056358 0.000000
v -3.230790 -9.221933 0.000000
v -4.734361 -9.470363 0.000000
v -6.116184 -9.770316 0.000000
v -7.347601 -10.091028 0.000000
v -7.900833 -10.251523 0.000000
v -8.410651 -10.409441 0.000000
v -8.876478 -10.563587 0.000000
v -9.298128 -10.713252 0.000000
v -9.675654 -10.858086 0.000000
v -10.009191 -10.997967 0.000000
v -10.009191 -10.997967 5.000000
v -9.675654 -10.858086 5.000000
v -9.298128 -10.713252 5.000000
v -8.876478 -10.563587 5.000000
v -8.410651 -10.409441 5.000000
v -7.900833 -10.251523 5.000000
v -7.347601 -10.091028 5.000000
v -6.116184 -9.770316 5.000000
v -4.734361 -9.470363 5.000000
v -3.230790 -9.221933 5.000000
v -1.641921 -9.056358 5.000000
v -0.009191 -8.997967 5.000000
v 1.623539 -9.056357 5.000000
v 3.212407 -9.221932 5.000000
v 4.715979 -9.470363 5.000000
v 6.097802 -9.770315 5.000000
v 7.329218 -10.091027 5.000000
v 7.882450 -10.251522 5.000000
v 8.392269 -10.409440 5.000000
v 8.858095 -10.563587 5.000000
v 9.279745 -10.713252 5.000000
v 9.657271 -10.858086 5.000000
v 9.990809 -10.997967 5.000000
v -7.509191 -10.565844 0.000000
v -5.009191 -10.244171 0.000000
v -2.509191 -10.042938 0.000000
v -0.009191 -9.973917 0.000000
v 2.490809 -10.042938 0.000000
v 4.990809 -10.244171 0.000000
v 7.490809 -10.565844 0.000000
v 7.490809 -10.565844 5.000000
v 4.990809 -10.244171 5.000000
v 2.490809 -10.042938 5.000000
v -0.009191 -9.973917 5.000000
v -2.509191 -10.042938 5.000000
v -5.009191 -10.244171 5.000000
v -7.509191 -10.565844 5.000000
vt -2.624192 0.000000 0.000000
vt -2.542186 0.000000 0.000000
vt -2.624192 0.500000 0.000000
vt -2.542186 0.500000 0.000000
vt -2.460180 0.000000 0.000000
vt -2.460180 0.500000 0.000000
vt -2.378174 0.000000 0.000000
vt -2.378174 0.500000 0.000000
vt -2.296168 0.000000 0.000000
vt -2.296168 0.500000 0.000000
vt -2.214162 0.000000 0.000000
vt -2.214162 0.500000 0.000000
vt -2.132156 0.000000 0.000000
vt -2.132156 0.500000 0.000000
vt -1.968144 0.000000 0.000000
vt -1.968144 0.500000 0.000000
vt -1.804132 0.000000 0.000000
vt -1.804132 0.500000 0.000000
vt -1.640120 0.000000 0.000000
vt -1.640120 0.500000 0.000000
vt -1.476108 0.000000 0.000000
vt -1.476108 0.500000 0.000000
vt -1.312096 0.000000 0.000000
vt -1.312096 0.500000 0.000000
vt -1.148084 0.000000 0.000000
vt -1.148084 0.500000 0.000000
vt -0.984072 0.000000 0.000000
vt -0.984072 0.500000 0.000000
vt -0.820060 0.000000 0.000000
vt -0.820060 0.500000 0.000000
vt -0.656048 0.000000 0.000000
vt -0.656048 0.500000 0.000000
vt -0.492036 0.000000 0.000000
vt -0.492036 0.500000 0.000000
vt -0.410030 0.000000 0.000000
vt -0.410030 0.500000 0.000000
vt -0.328024 0.000000 0.000000
vt -0.328024 0.500000 0.000000
vt -0.246018 0.000000 0.000000
vt -0.246018 0.500000 0.000000
vt -0.164012 0.000000 0.000000
vt -0.164012 0.500000 0.000000
vt -0.082006 0.000000 0.000000
vt -0.082006 0.500000 0.000000
vt 0.000000 0.000000 0.000000
vt 0.000000 0.500000 0.000000
vt 0.250000 0.000000 0.000000
vt 0.000000 0.500000 0.000000
vt 0.250000 0.500000 0.000000
vt 0.500000 0.000000 0.000000
vt 0.500000 0.500000 0.000000
vt 0.750000 0.000000 0.000000
vt 0.750000 0.500000 0.000000
vt 1.000000 0.000000 0.000000
vt 1.000000 0.500000 0.000000
vt 1.250000 0.000000 0.000000
vt 1.250000 0.500000 0.000000
vt 1.500000 0.000000 0.000000
vt 1.500000 0.500000 0.000000
vt 1.750000 0.000000 0.000000
vt 1.750000 0.500000 0.000000
vt 2.000000 0.000000 0.000000
vt 2.000000 0.500000 0.000000
vt -1.000000 -0.100964 0.000000
vt -0.750000 -0.057752 0.000000
vt -0.966646 -0.086976 0.000000
vt -0.928894 -0.072493 0.000000
vt -0.886729 -0.057526 0.000000
vt -0.840146 -0.042112 0.000000
vt -0.789164 -0.026320 0.000000
vt -0.733841 -0.010270 0.000000
vt -0.500000 -0.025585 0.000000
vt -0.610699 0.021801 0.000000
vt -0.472517 0.051796 0.000000
vt -0.250000 -0.005461 0.000000
vt -0.322160 0.076639 0.000000
vt -0.163273 0.093197 0.000000
vt 0.000000 0.001441 0.000000
vt 0.000000 0.099036 0.000000
vt 0.163273 0.093197 0.000000
vt 0.250000 -0.005461 0.000000
vt 0.322160 0.076639 0.000000
vt 0.472517 0.051796 0.000000
vt 0.500000 -0.025585 0.000000
vt 0.610699 0.021801 0.000000
vt 0.733841 -0.010270 0.000000
vt 0.750000 -0.057752 0.000000
vt 0.789164 -0.026320 0.000000
vt 0.840146 -0.042112 0.000000
vt 0.886729 -0.057526 0.000000
vt 0.928894 -0.072493 0.000000
vt 0.966646 -0.086976 0.000000
vt 1.000000 -0.100964 0.000000
vt -1.000000 -0.100964 0.000000
vt -0.750000 -0.057752 0.000000
vt -0.966646 -0.086976 0.000000
vt -0.928894 -0.072493 0.000000
vt -0.886729 -0.057526 0.000000
vt -0.840146 -0.042112 0.000000
vt -0.789164 -0.026320 0.000000
vt -0.733841 -0.010270 0.000000
vt -0.500000 -0.025585 0.000000
vt -0.610699 0.021801 0.000000
vt -0.472517 0.051796 0.000000
vt -0.250000 -0.005461 0.000000
vt -0.322160 0.076639 0.000000
vt -0.163273 0.093197 0.000000
vt -0.000000 0.001441 0.000000
vt -0.000000 0.099036 0.000000
vt 0.163273 0.093197 0.000000
vt 0.250000 -0.005461 0.000000
vt 0.322160 0.076639 0.000000
vt 0.472517 0.051796 0.000000
vt 0.500000 -0.025585 0.000000
vt 0.610699 0.021801 0.000000
vt 0.733841 -0.010270 0.000000
vt 0.750000 -0.057752 0.000000
vt 0.789164 -0.026320 0.000000
vt 0.840146 -0.042112 0.000000
vt 0.886729 -0.057526 0.000000
vt 0.928894 -0.072493 0.000000
vt 0.966646 -0.086976 0.000000
vt 1.000000 -0.100964 0.000000
vn 0.040348 0.091499 0.000000
vn 0.037175 0.092833 0.000000
vn 0.040348 0.091499 0.000000
vn 0.037175 0.092833 0.000000
vn 0.034586 0.093829 0.000000
vn 0.034586 0.093829 0.000000
vn 0.032404 0.094604 0.000000
vn 0.032404 0.094604 0.000000
vn 0.030489 0.095239 0.000000
vn 0.030489 0.095239 0.000000
vn 0.028727 0.095785 0.000000
vn 0.028727 0.095785 0.000000
vn 0.027017 0.096281 0.000000
vn 0.027017 0.096281 0.000000
vn 0.023372 0.097230 0.000000
vn 0.023372 0.097230 0.000000
vn 0.018957 0.098187 0.000000
vn 0.018957 0.098187 0.000000
vn 0.013521 0.099082 0.000000
vn 0.013521 0.099082 0.000000
vn 0.007094 0.099748 0.000000
vn 0.007094 0.099748 0.000000
vn -0.000000 0.100000 0.000000
vn -0.000000 0.100000 0.000000
vn -0.007094 0.099748 0.000000
vn -0.007094 0.099748 0.000000
vn -0.013521 0.099082 0.000000
vn -0.013521 0.099082 0.000000
vn -0.018957 0.098187 0.000000
vn -0.018957 0.098187 0.000000
vn -0.023372 0.097230 0.000000
vn -0.023372 0.097230 0.000000
vn -0.027017 0.096281 0.000000
vn -0.027017 0.096281 0.000000
vn -0.028727 0.095785 0.000000
vn -0.028727 0.095785 0.000000
vn -0.030489 0.095239 0.000000
vn -0.030489 0.095239 0.000000
vn -0.032404 0.094604 0.000000
vn -0.032404 0.094604 0.000000
vn -0.034586 0.093829 0.000000
vn -0.034586 0.093829 0.000000
vn -0.037175 0.092833 0.000000
vn -0.037175 0.092833 0.000000
vn -0.040348 0.091499 0.000000
vn -0.040348 0.091499 0.000000
vn 0.019062 -0.098166 0.000000
vn 0.014956 -0.098875 0.000000
vn 0.019062 -0.098166 0.000000
vn 0.014956 -0.098875 0.000000
vn 0.010481 -0.099449 0.000000
vn 0.010481 -0.099449 0.000000
vn 0.005468 -0.099850 0.000000
vn 0.005468 -0.099850 0.000000
vn 0.000000 -0.100000 0.000000
vn 0.000000 -0.100000 0.000000
vn -0.005468 -0.099850 0.000000
vn -0.005468 -0.099850 0.000000
vn -0.010481 -0.099449 0.000000
vn -0.010481 -0.099449 0.000000
vn -0.014956 -0.098875 0.000000
vn -0.014956 -0.098875 0.000000
vn -0.019062 -0.098166 0.000000
vn -0.019062 -0.098166 0.000000
vn 0.000000 0.000000 0.100000
vn 0.000000 0.000000 0.100000
vn 0.000000 0.000000 0.100000
vn 0.000000 0.000000 0.100000
vn 0.000000 0.000000 0.100000
vn 0.000000 0.000000 0.100000
vn 0.000000 0.000000 0.100000
vn 0.000000 0.000000 0.100000
vn 0.000000 0.000000 0.100000
vn 0.000000 0.000000 0.100000
vn 0.000000 0.000000 0.100000
vn 0.000000 0.000000 0.100000
vn 0.000000 0.000000 0.100000
vn 0.000000 0.000000 0.100000
vn 0.000000 0.000000 0.100000
vn 0.000000 0.000000 0.100000
vn 0.000000 0.000000 0.100000
vn 0.000000 0.000000 0.100000
vn 0.000000 0.000000 0.100000
vn 0.000000 0.000000 0.100000
vn 0.000000 0.000000 0.100000
vn 0.000000 0.000000 0.100000
vn 0.000000 0.000000 0.100000
vn 0.000000 0.000000 0.100000
vn 0.000000 0.000000 0.100000
vn 0.000000 0.000000 0.100000
vn 0.000000 0.000000 0.100000
vn 0.000000 0.000000 0.100000
vn 0.000000 0.000000 0.100000
vn 0.000000 0.000000 0.100000
vn 0.000000 0.000000 -0.100000
vn 0.000000 0.000000 -0.100000
vn 0.000000 0.000000 -0.100000
vn 0.000000 0.000000 -0.100000
vn 0.000000 0.000000 -0.100000
vn 0.000000 0.000000 -0.100000
vn 0.000000 0.000000 -0.100000
vn 0.000000 0.000000 -0.100000
vn 0.000000 0.000000 -0.100000
vn 0.000000 0.000000 -0.100000
vn 0.000000 0.000000 -0.100000
vn 0.000000 0.000000 -0.100000
vn 0.000000 0.000000 -0.100000
vn 0.000000 0.000000 -0.100000
vn 0.000000 0.000000 -0.100000
vn 0.000000 0.000000 -0.100000
vn 0.000000 0.000000 -0.100000
vn 0.000000 0.000000 -0.100000
vn 0.000000 0.000000 -0.100000
vn 0.000000 0.000000 -0.100000
vn 0.000000 0.000000 -0.100000
vn 0.000000 0.000000 -0.100000
vn 0.000000 0.000000 -0.100000
vn 0.000000 0.000000 -0.100000
vn 0.000000 0.000000 -0.100000
vn 0.000000 0.000000 -0.100000
vn 0.000000 0.000000 -0.100000
vn 0.000000 0.000000 -0.100000
vn 0.000000 0.000000 -0.100000
vn 0.000000 0.000000 -0.100000
f 45/119/117 46/120/118 90/121/119
f 90/121/119 46/120/118 89/122/120
f 89/122/120 46/120/118 47/123/121
f 89/122/120 47/123/121 88/124/122
f 88/124/122 47/123/121 48/125/123
f 88/124/122 48/125/123 87/126/124
f 87/126/124 48/125/123 49/127/125
f 87/126/124 49/127/125 86/128/126
f 86/128/126 49/127/125 50/129/127
f 86/128/126 50/129/127 85/130/128
f 85/130/128 50/129/127 51/131/129
f 85/130/128 51/131/129 84/132/130
f 84/132/130 51/131/129 52/133/131
f 84/132/130 52/133/131 83/134/132
f 83/134/132 52/133/131 53/135/133
f 83/134/132 53/135/133 82/136/134
f 82/136/134 53/135/133 54/137/135
f 82/136/134 54/137/135 81/138/136
f 81/138/136 54/137/135 55/139/137
f 81/138/136 55/139/137 80/140/138
f 80/140/138 55/139/137 56/141/139
f 80/140/138 56/141/139 79/142/140
f 79/142/140 56/141/139 57/143/141
f 79/142/140 57/143/141 78/144/142
f 78/144/142 57/143/141 58/145/143
f 78/144/142 58/145/143 77/146/144
f 77/146/144 58/145/143 59/147/145
f 77/146/144 59/147/145 76/148/146
f 76/148/146 59/147/145 60/149/147
f 76/148/146 60/149/147 75/150/148
f 75/150/148 60/149/147 61/151/149
f 75/150/148 61/151/149 74/152/150
f 74/152/150 61/151/149 62/153/151
f 74/152/150 62/153/151 73/154/152
f 73/154/152 62/153/151 63/155/153
f 73/154/152 63/155/153 72/156/154
f 72/156/154 63/155/153 64/157/155
f 72/156/154 64/157/155 71/158/156
f 71/158/156 64/157/155 65/159/157
f 71/158/156 65/159/157 70/160/158
f 70/160/158 65/159/157 66/161/159
f 70/160/158 66/161/159 69/162/160
f 69/162/160 66/161/159 67/163/161
f 69/162/160 67/163/161 68/164/162
f 67/163/163 91/165/164 68/166/165
f 68/166/165 91/165/164 104/167/166
f 104/167/166 91/165/164 92/168/167
f 104/167/166 92/168/167 103/169/168
f 103/169/168 92/168/167 93/170/169
f 103/169/168 93/170/169 102/171/170
f 102/171/170 93/170/169 94/172/171
f 102/171/170 94/172/171 101/173/172
f 101/173/172 94/172/171 95/174/173
f 101/173/172 95/174/173 100/175/174
f 100/175/174 95/174/173 96/176/175
f 100/175/174 96/176/175 99/177/176
f 99/177/176 96/176/175 97/178/177
f 99/177/176 97/178/177 98/179/178
f 98/179/178 97/178/177 45/180/179
f 98/179/178 45/180/179 90/181/180
f 68/182/181 104/183/182 69/184/183
f 69/184/183 104/183/182 70/185/184
f 70/185/184 104/183/182 71/186/185
f 71/186/185 104/183/182 72/187/186
f 72/187/186 104/183/182 73/188/187
f 73/188/187 104/183/182 74/189/188
f 74/189/188 104/183/182 103/190/189
f 74/189/188 103/190/189 75/191/190
f 75/191/190 103/190/189 76/192/191
f 76/192/191 103/190/189 102/193/192
f 76/192/191 102/193/192 77/194/193
f 77/194/193 102/193/192 78/195/194
f 78/195/194 102/193/192 101/196/195
f 78/195/194 101/196/195 79/197/196
f 79/197/196 101/196/195 80/198/197
f 80/198/197 101/196/195 100/199/198
f 80/198/197 100/199/198 81/200/199
f 81/200/199 100/199/198 82/201/200
f 82/201/200 100/199/198 99/202/201
f 82/201/200 99/202/201 83/203/202
f 83/203/202 99/202/201 84/204/203
f 84/204/203 99/202/201 98/205/204
f 84/204/203 98/205/204 85/206/205
f 85/206/205 98/205/204 86/207/206
f 86/207/206 98/205/204 87/208/207
f 87/208/207 98/205/204 88/209/208
f 88/209/208 98/205/204 89/210/209
f 89/210/209 98/205/204 90/211/210
f 45/212/211 97/213/212 46/214/213
f 46/214/213 97/213/212 47/215/214
f 47/215/214 97/213/212 48/216/215
f 48/216/215 97/213/212 49/217/216
f 49/217/216 97/213/212 50/218/217
f 50/218/217 97/213/212 51/219/218
f 51/219/218 97/213/212 96/220/219
f 51/219/218 96/220/219 52/221/220
f 52/221/220 96/220/219 53/222/221
f 53/222/221 96/220/219 95/223/222
f 53/222/221 95/223/222 54/224/223
f 54/224/223 95/223/222 55/225/224
f 55/225/224 95/223/222 94/226/225
f 55/225/224 94/226/225 56/227/226
f 56/227/226 94/226/225 57/228/227
f 57/228/227 94/226/225 93/229/228
f 57/228/227 93/229/228 58/230/229
f 58/230/229 93/229/228 59/231/230
f 59/231/230 93/229/228 92/232/231
f 59/231/230 92/232/231 60/233/232
f 60/233/232 92/232/231 61/234/233
f 61/234/233 92/232/231 91/235/234
f 61/234/233 91/235/234 62/236/235
f 62/236/235 91/235/234 63/237/236
f 63/237/236 91/235/234 64/238/237
f 64/238/237 91/235/234 65/239/238
f 65/239/238 91/235/234 66/240/239
f 66/240/239 91/235/234 67/241/240

# 104 vertices
# 241 texture params
# 240 normals
# 200 facets

# 2 groups
